%TF.GenerationSoftware,KiCad,Pcbnew,8.0.3*%
%TF.CreationDate,2024-07-16T15:02:39-04:00*%
%TF.ProjectId,Pheripheral-Scout,50686572-6970-4686-9572-616c2d53636f,rev?*%
%TF.SameCoordinates,Original*%
%TF.FileFunction,Copper,L2,Bot*%
%TF.FilePolarity,Positive*%
%FSLAX46Y46*%
G04 Gerber Fmt 4.6, Leading zero omitted, Abs format (unit mm)*
G04 Created by KiCad (PCBNEW 8.0.3) date 2024-07-16 15:02:39*
%MOMM*%
%LPD*%
G01*
G04 APERTURE LIST*
G04 Aperture macros list*
%AMRoundRect*
0 Rectangle with rounded corners*
0 $1 Rounding radius*
0 $2 $3 $4 $5 $6 $7 $8 $9 X,Y pos of 4 corners*
0 Add a 4 corners polygon primitive as box body*
4,1,4,$2,$3,$4,$5,$6,$7,$8,$9,$2,$3,0*
0 Add four circle primitives for the rounded corners*
1,1,$1+$1,$2,$3*
1,1,$1+$1,$4,$5*
1,1,$1+$1,$6,$7*
1,1,$1+$1,$8,$9*
0 Add four rect primitives between the rounded corners*
20,1,$1+$1,$2,$3,$4,$5,0*
20,1,$1+$1,$4,$5,$6,$7,0*
20,1,$1+$1,$6,$7,$8,$9,0*
20,1,$1+$1,$8,$9,$2,$3,0*%
G04 Aperture macros list end*
%TA.AperFunction,ComponentPad*%
%ADD10C,1.500000*%
%TD*%
%TA.AperFunction,ComponentPad*%
%ADD11RoundRect,0.250000X0.600000X-0.600000X0.600000X0.600000X-0.600000X0.600000X-0.600000X-0.600000X0*%
%TD*%
%TA.AperFunction,ComponentPad*%
%ADD12C,1.700000*%
%TD*%
%TA.AperFunction,Conductor*%
%ADD13C,0.250000*%
%TD*%
G04 APERTURE END LIST*
D10*
%TO.P,J5,1*%
%TO.N,/2B*%
X124460000Y-93980000D03*
%TO.P,J5,2*%
%TO.N,/2A*%
X124460000Y-95980000D03*
%TO.P,J5,3*%
%TO.N,/1A*%
X124460000Y-97980000D03*
%TO.P,J5,4*%
%TO.N,/1B*%
X124460000Y-99980000D03*
%TD*%
%TO.P,J2,1*%
%TO.N,/BL_Cathode*%
X104180000Y-106680000D03*
%TO.P,J2,2*%
%TO.N,/BL_Anode*%
X106180000Y-106680000D03*
%TD*%
%TO.P,J3,1*%
%TO.N,/S1P1*%
X111800000Y-96520000D03*
%TO.P,J3,2*%
%TO.N,/S1P2*%
X113800000Y-96520000D03*
%TD*%
D11*
%TO.P,J6,1,Pin_1*%
%TO.N,/TL_Cathode*%
X105410000Y-74930000D03*
D12*
%TO.P,J6,2,Pin_2*%
%TO.N,/TL_Anode*%
X105410000Y-72390000D03*
%TO.P,J6,3,Pin_3*%
%TO.N,/BL_Cathode*%
X107950000Y-74930000D03*
%TO.P,J6,4,Pin_4*%
%TO.N,/BL_Anode*%
X107950000Y-72390000D03*
%TO.P,J6,5,Pin_5*%
%TO.N,/S1P1*%
X110490000Y-74930000D03*
%TO.P,J6,6,Pin_6*%
%TO.N,/S1P2*%
X110490000Y-72390000D03*
%TO.P,J6,7,Pin_7*%
%TO.N,/S2P1*%
X113030000Y-74930000D03*
%TO.P,J6,8,Pin_8*%
%TO.N,/S2P2*%
X113030000Y-72390000D03*
%TO.P,J6,9,Pin_9*%
%TO.N,/2B*%
X115570000Y-74930000D03*
%TO.P,J6,10,Pin_10*%
%TO.N,/1B*%
X115570000Y-72390000D03*
%TO.P,J6,11,Pin_11*%
%TO.N,/2A*%
X118110000Y-74930000D03*
%TO.P,J6,12,Pin_12*%
%TO.N,/1A*%
X118110000Y-72390000D03*
%TO.P,J6,13,Pin_13*%
%TO.N,GND*%
X120650000Y-74930000D03*
%TO.P,J6,14,Pin_14*%
X120650000Y-72390000D03*
%TD*%
D10*
%TO.P,J4,1*%
%TO.N,/S2P1*%
X111760000Y-116840000D03*
%TO.P,J4,2*%
%TO.N,/S2P2*%
X113760000Y-116840000D03*
%TD*%
%TO.P,J1,1*%
%TO.N,/TL_Cathode*%
X104180000Y-86360000D03*
%TO.P,J1,2*%
%TO.N,/TL_Anode*%
X106180000Y-86360000D03*
%TD*%
D13*
%TO.N,/S2P2*%
X114395000Y-73755000D02*
X114395000Y-80867000D01*
X113030000Y-72390000D02*
X114395000Y-73755000D01*
X116840000Y-113760000D02*
X113760000Y-116840000D01*
X116840000Y-83312000D02*
X116840000Y-113760000D01*
X114395000Y-80867000D02*
X116840000Y-83312000D01*
%TO.N,/BL_Anode*%
X107950000Y-72390000D02*
X109125000Y-73565000D01*
X109125000Y-103735000D02*
X106180000Y-106680000D01*
X109125000Y-73565000D02*
X109125000Y-103735000D01*
%TO.N,/1A*%
X117623299Y-91143299D02*
X124460000Y-97980000D01*
X116935000Y-73565000D02*
X116935000Y-75416701D01*
X118110000Y-72390000D02*
X116935000Y-73565000D01*
X117623299Y-76105000D02*
X117623299Y-91143299D01*
X116935000Y-75416701D02*
X117623299Y-76105000D01*
%TO.N,/2A*%
X118110000Y-89630000D02*
X124460000Y-95980000D01*
X118110000Y-74930000D02*
X118110000Y-89630000D01*
%TO.N,/BL_Cathode*%
X107950000Y-102910000D02*
X104180000Y-106680000D01*
X107950000Y-74930000D02*
X107950000Y-102910000D01*
%TO.N,/S2P1*%
X113030000Y-74930000D02*
X113030000Y-80772000D01*
X113030000Y-80772000D02*
X116078000Y-83820000D01*
X116078000Y-112522000D02*
X111760000Y-116840000D01*
X116078000Y-83820000D02*
X116078000Y-112522000D01*
%TD*%
%TA.AperFunction,Conductor*%
%TO.N,GND*%
G36*
X120184075Y-72582993D02*
G01*
X120249901Y-72697007D01*
X120342993Y-72790099D01*
X120457007Y-72855925D01*
X120520590Y-72872962D01*
X119888625Y-73504925D01*
X119965031Y-73558425D01*
X120008655Y-73613002D01*
X120015848Y-73682501D01*
X119984326Y-73744855D01*
X119965029Y-73761576D01*
X119888625Y-73815072D01*
X120520590Y-74447037D01*
X120457007Y-74464075D01*
X120342993Y-74529901D01*
X120249901Y-74622993D01*
X120184075Y-74737007D01*
X120167037Y-74800590D01*
X119535073Y-74168626D01*
X119481881Y-74244594D01*
X119427304Y-74288219D01*
X119357806Y-74295413D01*
X119295451Y-74263891D01*
X119278730Y-74244594D01*
X119148494Y-74058597D01*
X118981402Y-73891506D01*
X118981396Y-73891501D01*
X118795842Y-73761575D01*
X118752217Y-73706998D01*
X118745023Y-73637500D01*
X118776546Y-73575145D01*
X118795842Y-73558425D01*
X118923165Y-73469272D01*
X118981401Y-73428495D01*
X119148495Y-73261401D01*
X119278732Y-73075403D01*
X119333307Y-73031780D01*
X119402805Y-73024586D01*
X119465160Y-73056109D01*
X119481880Y-73075405D01*
X119535073Y-73151373D01*
X120167037Y-72519409D01*
X120184075Y-72582993D01*
G37*
%TD.AperFunction*%
%TA.AperFunction,Conductor*%
G36*
X129733039Y-66059685D02*
G01*
X129778794Y-66112489D01*
X129790000Y-66164000D01*
X129790000Y-123416000D01*
X129770315Y-123483039D01*
X129717511Y-123528794D01*
X129666000Y-123540000D01*
X97914000Y-123540000D01*
X97846961Y-123520315D01*
X97801206Y-123467511D01*
X97790000Y-123416000D01*
X97790000Y-86359997D01*
X102924723Y-86359997D01*
X102924723Y-86360002D01*
X102943793Y-86577975D01*
X102943793Y-86577979D01*
X103000422Y-86789322D01*
X103000424Y-86789326D01*
X103000425Y-86789330D01*
X103035500Y-86864548D01*
X103092897Y-86987638D01*
X103092898Y-86987639D01*
X103218402Y-87166877D01*
X103373123Y-87321598D01*
X103552361Y-87447102D01*
X103750670Y-87539575D01*
X103962023Y-87596207D01*
X104144926Y-87612208D01*
X104179998Y-87615277D01*
X104180000Y-87615277D01*
X104180002Y-87615277D01*
X104208254Y-87612805D01*
X104397977Y-87596207D01*
X104609330Y-87539575D01*
X104807639Y-87447102D01*
X104986877Y-87321598D01*
X105092319Y-87216156D01*
X105153642Y-87182671D01*
X105223334Y-87187655D01*
X105267681Y-87216156D01*
X105373123Y-87321598D01*
X105552361Y-87447102D01*
X105750670Y-87539575D01*
X105962023Y-87596207D01*
X106144926Y-87612208D01*
X106179998Y-87615277D01*
X106180000Y-87615277D01*
X106180002Y-87615277D01*
X106208254Y-87612805D01*
X106397977Y-87596207D01*
X106609330Y-87539575D01*
X106807639Y-87447102D01*
X106986877Y-87321598D01*
X107112819Y-87195656D01*
X107174142Y-87162171D01*
X107243834Y-87167155D01*
X107299767Y-87209027D01*
X107324184Y-87274491D01*
X107324500Y-87283337D01*
X107324500Y-102599547D01*
X107304815Y-102666586D01*
X107288181Y-102687228D01*
X104553997Y-105421411D01*
X104492674Y-105454896D01*
X104434223Y-105453505D01*
X104397977Y-105443793D01*
X104180002Y-105424723D01*
X104179998Y-105424723D01*
X104034682Y-105437436D01*
X103962023Y-105443793D01*
X103962020Y-105443793D01*
X103750677Y-105500422D01*
X103750668Y-105500426D01*
X103552361Y-105592898D01*
X103552357Y-105592900D01*
X103373121Y-105718402D01*
X103218402Y-105873121D01*
X103092900Y-106052357D01*
X103092898Y-106052361D01*
X103000426Y-106250668D01*
X103000422Y-106250677D01*
X102943793Y-106462020D01*
X102943793Y-106462024D01*
X102924723Y-106679997D01*
X102924723Y-106680002D01*
X102943793Y-106897975D01*
X102943793Y-106897979D01*
X103000422Y-107109322D01*
X103000424Y-107109326D01*
X103000425Y-107109330D01*
X103046661Y-107208484D01*
X103092897Y-107307638D01*
X103092898Y-107307639D01*
X103218402Y-107486877D01*
X103373123Y-107641598D01*
X103552361Y-107767102D01*
X103750670Y-107859575D01*
X103962023Y-107916207D01*
X104144926Y-107932208D01*
X104179998Y-107935277D01*
X104180000Y-107935277D01*
X104180002Y-107935277D01*
X104208254Y-107932805D01*
X104397977Y-107916207D01*
X104609330Y-107859575D01*
X104807639Y-107767102D01*
X104986877Y-107641598D01*
X105092319Y-107536156D01*
X105153642Y-107502671D01*
X105223334Y-107507655D01*
X105267681Y-107536156D01*
X105373123Y-107641598D01*
X105552361Y-107767102D01*
X105750670Y-107859575D01*
X105962023Y-107916207D01*
X106144926Y-107932208D01*
X106179998Y-107935277D01*
X106180000Y-107935277D01*
X106180002Y-107935277D01*
X106208254Y-107932805D01*
X106397977Y-107916207D01*
X106609330Y-107859575D01*
X106807639Y-107767102D01*
X106986877Y-107641598D01*
X107141598Y-107486877D01*
X107267102Y-107307639D01*
X107359575Y-107109330D01*
X107416207Y-106897977D01*
X107435277Y-106680000D01*
X107416207Y-106462023D01*
X107406494Y-106425774D01*
X107408157Y-106355925D01*
X107438586Y-106306002D01*
X109523729Y-104220860D01*
X109523733Y-104220858D01*
X109610858Y-104133733D01*
X109679311Y-104031286D01*
X109679312Y-104031285D01*
X109679313Y-104031282D01*
X109679315Y-104031279D01*
X109689672Y-104006272D01*
X109726463Y-103917451D01*
X109750500Y-103796607D01*
X109750500Y-103673393D01*
X109750500Y-96519997D01*
X110544723Y-96519997D01*
X110544723Y-96520002D01*
X110563793Y-96737975D01*
X110563793Y-96737979D01*
X110620422Y-96949322D01*
X110620424Y-96949326D01*
X110620425Y-96949330D01*
X110634727Y-96980000D01*
X110712897Y-97147638D01*
X110712898Y-97147639D01*
X110838402Y-97326877D01*
X110993123Y-97481598D01*
X111172361Y-97607102D01*
X111370670Y-97699575D01*
X111582023Y-97756207D01*
X111764926Y-97772208D01*
X111799998Y-97775277D01*
X111800000Y-97775277D01*
X111800002Y-97775277D01*
X111828254Y-97772805D01*
X112017977Y-97756207D01*
X112229330Y-97699575D01*
X112427639Y-97607102D01*
X112606877Y-97481598D01*
X112712319Y-97376156D01*
X112773642Y-97342671D01*
X112843334Y-97347655D01*
X112887681Y-97376156D01*
X112993123Y-97481598D01*
X113172361Y-97607102D01*
X113370670Y-97699575D01*
X113582023Y-97756207D01*
X113764926Y-97772208D01*
X113799998Y-97775277D01*
X113800000Y-97775277D01*
X113800002Y-97775277D01*
X113828254Y-97772805D01*
X114017977Y-97756207D01*
X114229330Y-97699575D01*
X114427639Y-97607102D01*
X114606877Y-97481598D01*
X114761598Y-97326877D01*
X114887102Y-97147639D01*
X114979575Y-96949330D01*
X115036207Y-96737977D01*
X115055277Y-96520000D01*
X115036207Y-96302023D01*
X114979575Y-96090670D01*
X114887102Y-95892362D01*
X114887100Y-95892359D01*
X114887099Y-95892357D01*
X114761599Y-95713124D01*
X114705099Y-95656624D01*
X114606877Y-95558402D01*
X114427639Y-95432898D01*
X114427640Y-95432898D01*
X114427638Y-95432897D01*
X114328484Y-95386661D01*
X114229330Y-95340425D01*
X114229326Y-95340424D01*
X114229322Y-95340422D01*
X114017977Y-95283793D01*
X113800002Y-95264723D01*
X113799998Y-95264723D01*
X113654682Y-95277436D01*
X113582023Y-95283793D01*
X113582020Y-95283793D01*
X113370677Y-95340422D01*
X113370668Y-95340426D01*
X113172361Y-95432898D01*
X113172357Y-95432900D01*
X112993124Y-95558400D01*
X112887680Y-95663844D01*
X112826357Y-95697328D01*
X112756665Y-95692344D01*
X112712318Y-95663843D01*
X112606881Y-95558406D01*
X112606877Y-95558402D01*
X112427639Y-95432898D01*
X112427640Y-95432898D01*
X112427638Y-95432897D01*
X112328484Y-95386661D01*
X112229330Y-95340425D01*
X112229326Y-95340424D01*
X112229322Y-95340422D01*
X112017977Y-95283793D01*
X111800002Y-95264723D01*
X111799998Y-95264723D01*
X111654682Y-95277436D01*
X111582023Y-95283793D01*
X111582020Y-95283793D01*
X111370677Y-95340422D01*
X111370668Y-95340426D01*
X111172361Y-95432898D01*
X111172357Y-95432900D01*
X110993121Y-95558402D01*
X110838402Y-95713121D01*
X110712900Y-95892357D01*
X110712898Y-95892361D01*
X110620426Y-96090668D01*
X110620422Y-96090677D01*
X110563793Y-96302020D01*
X110563793Y-96302024D01*
X110544723Y-96519997D01*
X109750500Y-96519997D01*
X109750500Y-76269918D01*
X109770185Y-76202879D01*
X109822989Y-76157124D01*
X109892147Y-76147180D01*
X109926899Y-76157534D01*
X110026337Y-76203903D01*
X110026342Y-76203904D01*
X110026344Y-76203905D01*
X110067050Y-76214812D01*
X110254592Y-76265063D01*
X110431034Y-76280500D01*
X110489999Y-76285659D01*
X110490000Y-76285659D01*
X110490001Y-76285659D01*
X110548966Y-76280500D01*
X110725408Y-76265063D01*
X110953663Y-76203903D01*
X111167830Y-76104035D01*
X111361401Y-75968495D01*
X111528495Y-75801401D01*
X111658425Y-75615842D01*
X111713002Y-75572217D01*
X111782500Y-75565023D01*
X111844855Y-75596546D01*
X111861575Y-75615842D01*
X111991501Y-75801396D01*
X111991506Y-75801402D01*
X112158597Y-75968493D01*
X112158603Y-75968498D01*
X112168563Y-75975472D01*
X112351624Y-76103653D01*
X112395248Y-76158228D01*
X112404500Y-76205226D01*
X112404500Y-80833611D01*
X112428535Y-80954444D01*
X112428540Y-80954461D01*
X112475685Y-81068280D01*
X112475690Y-81068289D01*
X112509914Y-81119507D01*
X112509915Y-81119509D01*
X112544141Y-81170733D01*
X112635586Y-81262178D01*
X112635608Y-81262198D01*
X115416181Y-84042771D01*
X115449666Y-84104094D01*
X115452500Y-84130452D01*
X115452500Y-112211547D01*
X115432815Y-112278586D01*
X115416181Y-112299228D01*
X112133997Y-115581411D01*
X112072674Y-115614896D01*
X112014223Y-115613505D01*
X111977977Y-115603793D01*
X111760002Y-115584723D01*
X111759998Y-115584723D01*
X111614682Y-115597436D01*
X111542023Y-115603793D01*
X111542020Y-115603793D01*
X111330677Y-115660422D01*
X111330668Y-115660426D01*
X111132361Y-115752898D01*
X111132357Y-115752900D01*
X110953121Y-115878402D01*
X110798402Y-116033121D01*
X110672900Y-116212357D01*
X110672898Y-116212361D01*
X110580426Y-116410668D01*
X110580422Y-116410677D01*
X110523793Y-116622020D01*
X110523793Y-116622024D01*
X110504723Y-116839997D01*
X110504723Y-116840002D01*
X110523793Y-117057975D01*
X110523793Y-117057979D01*
X110580422Y-117269322D01*
X110580424Y-117269326D01*
X110580425Y-117269330D01*
X110626661Y-117368484D01*
X110672897Y-117467638D01*
X110672898Y-117467639D01*
X110798402Y-117646877D01*
X110953123Y-117801598D01*
X111132361Y-117927102D01*
X111330670Y-118019575D01*
X111542023Y-118076207D01*
X111724926Y-118092208D01*
X111759998Y-118095277D01*
X111760000Y-118095277D01*
X111760002Y-118095277D01*
X111788254Y-118092805D01*
X111977977Y-118076207D01*
X112189330Y-118019575D01*
X112387639Y-117927102D01*
X112566877Y-117801598D01*
X112672319Y-117696156D01*
X112733642Y-117662671D01*
X112803334Y-117667655D01*
X112847681Y-117696156D01*
X112953123Y-117801598D01*
X113132361Y-117927102D01*
X113330670Y-118019575D01*
X113542023Y-118076207D01*
X113724926Y-118092208D01*
X113759998Y-118095277D01*
X113760000Y-118095277D01*
X113760002Y-118095277D01*
X113788254Y-118092805D01*
X113977977Y-118076207D01*
X114189330Y-118019575D01*
X114387639Y-117927102D01*
X114566877Y-117801598D01*
X114721598Y-117646877D01*
X114847102Y-117467639D01*
X114939575Y-117269330D01*
X114996207Y-117057977D01*
X115015277Y-116840000D01*
X114996207Y-116622023D01*
X114986494Y-116585774D01*
X114988157Y-116515925D01*
X115018586Y-116466002D01*
X117238729Y-114245860D01*
X117238733Y-114245858D01*
X117325858Y-114158733D01*
X117394311Y-114056286D01*
X117394312Y-114056285D01*
X117394313Y-114056282D01*
X117394315Y-114056279D01*
X117401059Y-114039995D01*
X120062515Y-114039995D01*
X120062515Y-114040000D01*
X120082326Y-114272790D01*
X120141199Y-114498894D01*
X120237432Y-114711787D01*
X120237437Y-114711795D01*
X120368265Y-114905362D01*
X120529930Y-115074040D01*
X120529931Y-115074041D01*
X120717769Y-115212966D01*
X120717771Y-115212967D01*
X120717774Y-115212969D01*
X120926396Y-115318154D01*
X121149792Y-115386568D01*
X121381538Y-115416244D01*
X121614965Y-115406328D01*
X121843359Y-115357106D01*
X122060149Y-115269992D01*
X122259099Y-115147494D01*
X122434484Y-114993136D01*
X122581260Y-114811357D01*
X122695204Y-114607388D01*
X122773038Y-114387096D01*
X122812523Y-114156819D01*
X122815000Y-114040000D01*
X122812523Y-113923181D01*
X122773038Y-113692904D01*
X122695204Y-113472612D01*
X122695203Y-113472609D01*
X122581259Y-113268642D01*
X122434484Y-113086864D01*
X122434480Y-113086860D01*
X122342557Y-113005958D01*
X122259099Y-112932506D01*
X122060149Y-112810008D01*
X121843359Y-112722894D01*
X121843360Y-112722894D01*
X121614963Y-112673671D01*
X121381540Y-112663755D01*
X121149795Y-112693431D01*
X120926396Y-112761846D01*
X120926390Y-112761849D01*
X120717769Y-112867033D01*
X120529931Y-113005958D01*
X120529930Y-113005959D01*
X120368265Y-113174637D01*
X120237437Y-113368204D01*
X120237432Y-113368212D01*
X120141199Y-113581105D01*
X120082326Y-113807209D01*
X120062515Y-114039995D01*
X117401059Y-114039995D01*
X117404672Y-114031272D01*
X117441463Y-113942451D01*
X117465500Y-113821607D01*
X117465500Y-113698393D01*
X117465500Y-92169452D01*
X117485185Y-92102413D01*
X117537989Y-92056658D01*
X117607147Y-92046714D01*
X117670703Y-92075739D01*
X117677181Y-92081771D01*
X123201411Y-97606001D01*
X123234896Y-97667324D01*
X123233505Y-97725774D01*
X123223794Y-97762017D01*
X123223794Y-97762020D01*
X123223793Y-97762023D01*
X123219025Y-97816517D01*
X123204723Y-97979997D01*
X123204723Y-97980002D01*
X123223793Y-98197975D01*
X123223793Y-98197979D01*
X123280422Y-98409322D01*
X123280424Y-98409326D01*
X123280425Y-98409330D01*
X123326661Y-98508484D01*
X123372897Y-98607638D01*
X123372898Y-98607639D01*
X123498402Y-98786877D01*
X123498406Y-98786881D01*
X123603843Y-98892318D01*
X123637328Y-98953641D01*
X123632344Y-99023333D01*
X123603844Y-99067680D01*
X123498400Y-99173124D01*
X123372900Y-99352357D01*
X123372898Y-99352361D01*
X123280426Y-99550668D01*
X123280422Y-99550677D01*
X123223793Y-99762020D01*
X123223793Y-99762024D01*
X123204723Y-99979997D01*
X123204723Y-99980002D01*
X123223793Y-100197975D01*
X123223793Y-100197979D01*
X123280422Y-100409322D01*
X123280424Y-100409326D01*
X123280425Y-100409330D01*
X123326661Y-100508484D01*
X123372897Y-100607638D01*
X123372898Y-100607639D01*
X123498402Y-100786877D01*
X123653123Y-100941598D01*
X123832361Y-101067102D01*
X124030670Y-101159575D01*
X124242023Y-101216207D01*
X124424926Y-101232208D01*
X124459998Y-101235277D01*
X124460000Y-101235277D01*
X124460002Y-101235277D01*
X124488254Y-101232805D01*
X124677977Y-101216207D01*
X124889330Y-101159575D01*
X125087639Y-101067102D01*
X125266877Y-100941598D01*
X125421598Y-100786877D01*
X125547102Y-100607639D01*
X125639575Y-100409330D01*
X125696207Y-100197977D01*
X125715277Y-99980000D01*
X125696207Y-99762023D01*
X125639575Y-99550670D01*
X125547102Y-99352362D01*
X125547100Y-99352359D01*
X125547099Y-99352357D01*
X125421597Y-99173121D01*
X125316156Y-99067680D01*
X125282671Y-99006357D01*
X125287655Y-98936665D01*
X125316152Y-98892322D01*
X125421598Y-98786877D01*
X125547102Y-98607639D01*
X125639575Y-98409330D01*
X125696207Y-98197977D01*
X125715277Y-97980000D01*
X125696207Y-97762023D01*
X125639575Y-97550670D01*
X125547102Y-97352362D01*
X125547100Y-97352359D01*
X125547099Y-97352357D01*
X125421597Y-97173121D01*
X125316156Y-97067680D01*
X125282671Y-97006357D01*
X125287655Y-96936665D01*
X125316152Y-96892322D01*
X125421598Y-96786877D01*
X125547102Y-96607639D01*
X125639575Y-96409330D01*
X125696207Y-96197977D01*
X125715277Y-95980000D01*
X125696207Y-95762023D01*
X125639575Y-95550670D01*
X125547102Y-95352362D01*
X125547100Y-95352359D01*
X125547099Y-95352357D01*
X125421597Y-95173121D01*
X125316156Y-95067680D01*
X125282671Y-95006357D01*
X125287655Y-94936665D01*
X125316152Y-94892322D01*
X125421598Y-94786877D01*
X125547102Y-94607639D01*
X125639575Y-94409330D01*
X125696207Y-94197977D01*
X125715277Y-93980000D01*
X125696207Y-93762023D01*
X125639575Y-93550670D01*
X125547102Y-93352362D01*
X125547100Y-93352359D01*
X125547099Y-93352357D01*
X125421599Y-93173124D01*
X125421596Y-93173121D01*
X125266877Y-93018402D01*
X125087639Y-92892898D01*
X125087640Y-92892898D01*
X125087638Y-92892897D01*
X124988484Y-92846661D01*
X124889330Y-92800425D01*
X124889326Y-92800424D01*
X124889322Y-92800422D01*
X124677977Y-92743793D01*
X124460002Y-92724723D01*
X124459998Y-92724723D01*
X124314682Y-92737436D01*
X124242023Y-92743793D01*
X124242020Y-92743793D01*
X124030677Y-92800422D01*
X124030668Y-92800426D01*
X123832361Y-92892898D01*
X123832357Y-92892900D01*
X123653121Y-93018402D01*
X123498402Y-93173121D01*
X123372900Y-93352357D01*
X123372898Y-93352361D01*
X123280426Y-93550668D01*
X123280423Y-93550674D01*
X123258844Y-93631211D01*
X123222479Y-93690871D01*
X123159632Y-93721400D01*
X123090256Y-93713105D01*
X123051388Y-93686798D01*
X118771819Y-89407229D01*
X118738334Y-89345906D01*
X118735500Y-89319548D01*
X118735500Y-83039995D01*
X120062515Y-83039995D01*
X120062515Y-83040000D01*
X120082326Y-83272790D01*
X120141199Y-83498894D01*
X120237432Y-83711787D01*
X120237437Y-83711795D01*
X120368265Y-83905362D01*
X120529930Y-84074040D01*
X120529931Y-84074041D01*
X120717769Y-84212966D01*
X120717771Y-84212967D01*
X120717774Y-84212969D01*
X120926396Y-84318154D01*
X121149792Y-84386568D01*
X121381538Y-84416244D01*
X121614965Y-84406328D01*
X121843359Y-84357106D01*
X122060149Y-84269992D01*
X122259099Y-84147494D01*
X122434484Y-83993136D01*
X122581260Y-83811357D01*
X122695204Y-83607388D01*
X122773038Y-83387096D01*
X122812523Y-83156819D01*
X122815000Y-83040000D01*
X122812523Y-82923181D01*
X122773038Y-82692904D01*
X122695204Y-82472612D01*
X122695203Y-82472609D01*
X122626271Y-82349217D01*
X122581260Y-82268643D01*
X122434484Y-82086864D01*
X122434480Y-82086860D01*
X122342557Y-82005958D01*
X122259099Y-81932506D01*
X122060149Y-81810008D01*
X121843359Y-81722894D01*
X121843360Y-81722894D01*
X121614963Y-81673671D01*
X121381540Y-81663755D01*
X121149795Y-81693431D01*
X120926396Y-81761846D01*
X120926390Y-81761849D01*
X120717769Y-81867033D01*
X120529931Y-82005958D01*
X120529930Y-82005959D01*
X120368265Y-82174637D01*
X120237437Y-82368204D01*
X120237432Y-82368212D01*
X120141199Y-82581105D01*
X120082326Y-82807209D01*
X120062515Y-83039995D01*
X118735500Y-83039995D01*
X118735500Y-76205226D01*
X118755185Y-76138187D01*
X118788374Y-76103654D01*
X118981401Y-75968495D01*
X119148495Y-75801401D01*
X119278732Y-75615403D01*
X119333307Y-75571780D01*
X119402805Y-75564586D01*
X119465160Y-75596109D01*
X119481880Y-75615405D01*
X119535073Y-75691373D01*
X120167037Y-75059409D01*
X120184075Y-75122993D01*
X120249901Y-75237007D01*
X120342993Y-75330099D01*
X120457007Y-75395925D01*
X120520590Y-75412962D01*
X119888625Y-76044925D01*
X119972421Y-76103599D01*
X120186507Y-76203429D01*
X120186516Y-76203433D01*
X120414673Y-76264567D01*
X120414684Y-76264569D01*
X120649998Y-76285157D01*
X120650002Y-76285157D01*
X120885315Y-76264569D01*
X120885326Y-76264567D01*
X121113483Y-76203433D01*
X121113492Y-76203429D01*
X121327578Y-76103600D01*
X121327582Y-76103598D01*
X121411373Y-76044926D01*
X121411373Y-76044925D01*
X120779409Y-75412962D01*
X120842993Y-75395925D01*
X120957007Y-75330099D01*
X121050099Y-75237007D01*
X121115925Y-75122993D01*
X121132962Y-75059410D01*
X121764925Y-75691373D01*
X121764926Y-75691373D01*
X121823598Y-75607582D01*
X121823600Y-75607578D01*
X121923429Y-75393492D01*
X121923433Y-75393483D01*
X121984567Y-75165326D01*
X121984569Y-75165315D01*
X122005157Y-74930001D01*
X122005157Y-74929998D01*
X121984569Y-74694684D01*
X121984567Y-74694673D01*
X121923433Y-74466516D01*
X121923429Y-74466507D01*
X121823600Y-74252423D01*
X121823599Y-74252421D01*
X121764925Y-74168626D01*
X121764925Y-74168625D01*
X121132962Y-74800589D01*
X121115925Y-74737007D01*
X121050099Y-74622993D01*
X120957007Y-74529901D01*
X120842993Y-74464075D01*
X120779410Y-74447037D01*
X121411373Y-73815073D01*
X121334969Y-73761576D01*
X121291344Y-73706999D01*
X121284150Y-73637501D01*
X121315672Y-73575146D01*
X121334968Y-73558425D01*
X121411373Y-73504925D01*
X120779409Y-72872962D01*
X120842993Y-72855925D01*
X120957007Y-72790099D01*
X121050099Y-72697007D01*
X121115925Y-72582993D01*
X121132962Y-72519410D01*
X121764925Y-73151373D01*
X121764926Y-73151373D01*
X121823598Y-73067582D01*
X121823600Y-73067578D01*
X121923429Y-72853492D01*
X121923433Y-72853483D01*
X121984567Y-72625326D01*
X121984569Y-72625315D01*
X122005157Y-72390001D01*
X122005157Y-72389998D01*
X121984569Y-72154684D01*
X121984567Y-72154673D01*
X121923433Y-71926516D01*
X121923429Y-71926507D01*
X121823600Y-71712423D01*
X121823599Y-71712421D01*
X121764925Y-71628626D01*
X121764925Y-71628625D01*
X121132962Y-72260589D01*
X121115925Y-72197007D01*
X121050099Y-72082993D01*
X120957007Y-71989901D01*
X120842993Y-71924075D01*
X120779410Y-71907037D01*
X121411373Y-71275073D01*
X121411373Y-71275072D01*
X121327583Y-71216402D01*
X121327579Y-71216400D01*
X121113492Y-71116570D01*
X121113483Y-71116566D01*
X120885326Y-71055432D01*
X120885315Y-71055430D01*
X120650002Y-71034843D01*
X120649998Y-71034843D01*
X120414684Y-71055430D01*
X120414673Y-71055432D01*
X120186516Y-71116566D01*
X120186507Y-71116570D01*
X119972419Y-71216401D01*
X119888625Y-71275072D01*
X120520590Y-71907037D01*
X120457007Y-71924075D01*
X120342993Y-71989901D01*
X120249901Y-72082993D01*
X120184075Y-72197007D01*
X120167037Y-72260590D01*
X119535073Y-71628626D01*
X119481881Y-71704594D01*
X119427304Y-71748219D01*
X119357806Y-71755413D01*
X119295451Y-71723891D01*
X119278730Y-71704594D01*
X119148494Y-71518597D01*
X118981402Y-71351506D01*
X118981395Y-71351501D01*
X118787834Y-71215967D01*
X118787830Y-71215965D01*
X118787828Y-71215964D01*
X118573663Y-71116097D01*
X118573659Y-71116096D01*
X118573655Y-71116094D01*
X118345413Y-71054938D01*
X118345403Y-71054936D01*
X118110001Y-71034341D01*
X118109999Y-71034341D01*
X117874596Y-71054936D01*
X117874586Y-71054938D01*
X117646344Y-71116094D01*
X117646335Y-71116098D01*
X117432171Y-71215964D01*
X117432169Y-71215965D01*
X117238597Y-71351505D01*
X117071505Y-71518597D01*
X116941575Y-71704158D01*
X116886998Y-71747783D01*
X116817500Y-71754977D01*
X116755145Y-71723454D01*
X116738425Y-71704158D01*
X116608494Y-71518597D01*
X116441402Y-71351506D01*
X116441395Y-71351501D01*
X116247834Y-71215967D01*
X116247830Y-71215965D01*
X116247828Y-71215964D01*
X116033663Y-71116097D01*
X116033659Y-71116096D01*
X116033655Y-71116094D01*
X115805413Y-71054938D01*
X115805403Y-71054936D01*
X115570001Y-71034341D01*
X115569999Y-71034341D01*
X115334596Y-71054936D01*
X115334586Y-71054938D01*
X115106344Y-71116094D01*
X115106335Y-71116098D01*
X114892171Y-71215964D01*
X114892169Y-71215965D01*
X114698597Y-71351505D01*
X114531505Y-71518597D01*
X114401575Y-71704158D01*
X114346998Y-71747783D01*
X114277500Y-71754977D01*
X114215145Y-71723454D01*
X114198425Y-71704158D01*
X114068494Y-71518597D01*
X113901402Y-71351506D01*
X113901395Y-71351501D01*
X113707834Y-71215967D01*
X113707830Y-71215965D01*
X113707828Y-71215964D01*
X113493663Y-71116097D01*
X113493659Y-71116096D01*
X113493655Y-71116094D01*
X113265413Y-71054938D01*
X113265403Y-71054936D01*
X113030001Y-71034341D01*
X113029999Y-71034341D01*
X112794596Y-71054936D01*
X112794586Y-71054938D01*
X112566344Y-71116094D01*
X112566335Y-71116098D01*
X112352171Y-71215964D01*
X112352169Y-71215965D01*
X112158597Y-71351505D01*
X111991505Y-71518597D01*
X111861575Y-71704158D01*
X111806998Y-71747783D01*
X111737500Y-71754977D01*
X111675145Y-71723454D01*
X111658425Y-71704158D01*
X111528494Y-71518597D01*
X111361402Y-71351506D01*
X111361395Y-71351501D01*
X111167834Y-71215967D01*
X111167830Y-71215965D01*
X111167828Y-71215964D01*
X110953663Y-71116097D01*
X110953659Y-71116096D01*
X110953655Y-71116094D01*
X110725413Y-71054938D01*
X110725403Y-71054936D01*
X110490001Y-71034341D01*
X110489999Y-71034341D01*
X110254596Y-71054936D01*
X110254586Y-71054938D01*
X110026344Y-71116094D01*
X110026335Y-71116098D01*
X109812171Y-71215964D01*
X109812169Y-71215965D01*
X109618597Y-71351505D01*
X109451505Y-71518597D01*
X109321575Y-71704158D01*
X109266998Y-71747783D01*
X109197500Y-71754977D01*
X109135145Y-71723454D01*
X109118425Y-71704158D01*
X108988494Y-71518597D01*
X108821402Y-71351506D01*
X108821395Y-71351501D01*
X108627834Y-71215967D01*
X108627830Y-71215965D01*
X108627828Y-71215964D01*
X108413663Y-71116097D01*
X108413659Y-71116096D01*
X108413655Y-71116094D01*
X108185413Y-71054938D01*
X108185403Y-71054936D01*
X107950001Y-71034341D01*
X107949999Y-71034341D01*
X107714596Y-71054936D01*
X107714586Y-71054938D01*
X107486344Y-71116094D01*
X107486335Y-71116098D01*
X107272171Y-71215964D01*
X107272169Y-71215965D01*
X107078597Y-71351505D01*
X106911505Y-71518597D01*
X106781575Y-71704158D01*
X106726998Y-71747783D01*
X106657500Y-71754977D01*
X106595145Y-71723454D01*
X106578425Y-71704158D01*
X106448494Y-71518597D01*
X106281402Y-71351506D01*
X106281395Y-71351501D01*
X106087834Y-71215967D01*
X106087830Y-71215965D01*
X106087828Y-71215964D01*
X105873663Y-71116097D01*
X105873659Y-71116096D01*
X105873655Y-71116094D01*
X105645413Y-71054938D01*
X105645403Y-71054936D01*
X105410001Y-71034341D01*
X105409999Y-71034341D01*
X105174596Y-71054936D01*
X105174586Y-71054938D01*
X104946344Y-71116094D01*
X104946335Y-71116098D01*
X104732171Y-71215964D01*
X104732169Y-71215965D01*
X104538597Y-71351505D01*
X104371505Y-71518597D01*
X104235965Y-71712169D01*
X104235964Y-71712171D01*
X104136098Y-71926335D01*
X104136094Y-71926344D01*
X104074938Y-72154586D01*
X104074936Y-72154596D01*
X104054341Y-72389999D01*
X104054341Y-72390000D01*
X104074936Y-72625403D01*
X104074938Y-72625413D01*
X104136094Y-72853655D01*
X104136096Y-72853659D01*
X104136097Y-72853663D01*
X104215800Y-73024586D01*
X104235965Y-73067830D01*
X104235967Y-73067834D01*
X104294462Y-73151373D01*
X104371505Y-73261401D01*
X104538599Y-73428495D01*
X104538604Y-73428499D01*
X104539968Y-73429643D01*
X104540407Y-73430303D01*
X104542427Y-73432323D01*
X104542021Y-73432728D01*
X104578669Y-73487815D01*
X104579776Y-73557676D01*
X104542937Y-73617046D01*
X104499267Y-73642336D01*
X104490669Y-73645184D01*
X104490663Y-73645187D01*
X104341342Y-73737289D01*
X104217289Y-73861342D01*
X104125187Y-74010663D01*
X104125185Y-74010668D01*
X104108701Y-74060414D01*
X104070001Y-74177203D01*
X104070001Y-74177204D01*
X104070000Y-74177204D01*
X104059500Y-74279983D01*
X104059500Y-75580001D01*
X104059501Y-75580018D01*
X104070000Y-75682796D01*
X104070001Y-75682799D01*
X104109303Y-75801402D01*
X104125186Y-75849334D01*
X104217288Y-75998656D01*
X104341344Y-76122712D01*
X104490666Y-76214814D01*
X104657203Y-76269999D01*
X104759991Y-76280500D01*
X106060008Y-76280499D01*
X106162797Y-76269999D01*
X106329334Y-76214814D01*
X106478656Y-76122712D01*
X106602712Y-75998656D01*
X106694814Y-75849334D01*
X106697662Y-75840738D01*
X106737429Y-75783294D01*
X106801944Y-75756468D01*
X106870720Y-75768779D01*
X106907483Y-75797766D01*
X106907677Y-75797573D01*
X106909313Y-75799209D01*
X106910354Y-75800030D01*
X106911501Y-75801397D01*
X107078597Y-75968493D01*
X107078603Y-75968498D01*
X107088563Y-75975472D01*
X107271624Y-76103653D01*
X107315248Y-76158228D01*
X107324500Y-76205226D01*
X107324500Y-85436662D01*
X107304815Y-85503701D01*
X107252011Y-85549456D01*
X107182853Y-85559400D01*
X107119297Y-85530375D01*
X107112819Y-85524344D01*
X107092176Y-85503701D01*
X106986877Y-85398402D01*
X106807639Y-85272898D01*
X106807640Y-85272898D01*
X106807638Y-85272897D01*
X106708484Y-85226661D01*
X106609330Y-85180425D01*
X106609326Y-85180424D01*
X106609322Y-85180422D01*
X106397977Y-85123793D01*
X106180002Y-85104723D01*
X106179998Y-85104723D01*
X106034682Y-85117436D01*
X105962023Y-85123793D01*
X105962020Y-85123793D01*
X105750677Y-85180422D01*
X105750668Y-85180426D01*
X105552361Y-85272898D01*
X105552357Y-85272900D01*
X105373124Y-85398400D01*
X105267680Y-85503844D01*
X105206357Y-85537328D01*
X105136665Y-85532344D01*
X105092318Y-85503843D01*
X104986881Y-85398406D01*
X104986877Y-85398402D01*
X104807639Y-85272898D01*
X104807640Y-85272898D01*
X104807638Y-85272897D01*
X104708484Y-85226661D01*
X104609330Y-85180425D01*
X104609326Y-85180424D01*
X104609322Y-85180422D01*
X104397977Y-85123793D01*
X104180002Y-85104723D01*
X104179998Y-85104723D01*
X104034682Y-85117436D01*
X103962023Y-85123793D01*
X103962020Y-85123793D01*
X103750677Y-85180422D01*
X103750668Y-85180426D01*
X103552361Y-85272898D01*
X103552357Y-85272900D01*
X103373121Y-85398402D01*
X103218402Y-85553121D01*
X103092900Y-85732357D01*
X103092898Y-85732361D01*
X103000426Y-85930668D01*
X103000422Y-85930677D01*
X102943793Y-86142020D01*
X102943793Y-86142024D01*
X102924723Y-86359997D01*
X97790000Y-86359997D01*
X97790000Y-66164000D01*
X97809685Y-66096961D01*
X97862489Y-66051206D01*
X97914000Y-66040000D01*
X129666000Y-66040000D01*
X129733039Y-66059685D01*
G37*
%TD.AperFunction*%
%TD*%
M02*
