%TF.GenerationSoftware,KiCad,Pcbnew,8.0.3*%
%TF.CreationDate,2024-07-16T15:02:45-04:00*%
%TF.ProjectId,Pheripheral-Scout,50686572-6970-4686-9572-616c2d53636f,rev?*%
%TF.SameCoordinates,Original*%
%TF.FileFunction,Drillmap*%
%TF.FilePolarity,Positive*%
%FSLAX45Y45*%
G04 Gerber Fmt 4.5, Leading zero omitted, Abs format (unit mm)*
G04 Created by KiCad (PCBNEW 8.0.3) date 2024-07-16 15:02:45*
%MOMM*%
%LPD*%
G01*
G04 APERTURE LIST*
%ADD10C,0.250000*%
%ADD11C,0.200000*%
%ADD12C,0.100000*%
G04 APERTURE END LIST*
D10*
X12979000Y-6604000D02*
X9779000Y-6604000D01*
X9779000Y-12354000D02*
X12979000Y-12354000D01*
X12979000Y-12354000D02*
X12979000Y-6604000D01*
X9779000Y-6604000D02*
X9779000Y-12354000D01*
X12281500Y-8304000D02*
G75*
G02*
X12006500Y-8304000I-137500J0D01*
G01*
X12006500Y-8304000D02*
G75*
G02*
X12281500Y-8304000I137500J0D01*
G01*
X12281500Y-11404000D02*
G75*
G02*
X12006500Y-11404000I-137500J0D01*
G01*
X12006500Y-11404000D02*
G75*
G02*
X12281500Y-11404000I137500J0D01*
G01*
D11*
D12*
X10368000Y-8586000D02*
X10468000Y-8686000D01*
X10468000Y-8586000D02*
X10368000Y-8686000D01*
X10368000Y-10618000D02*
X10468000Y-10718000D01*
X10468000Y-10618000D02*
X10368000Y-10718000D01*
X10491000Y-7189000D02*
X10591000Y-7289000D01*
X10591000Y-7189000D02*
X10491000Y-7289000D01*
X10491000Y-7443000D02*
X10591000Y-7543000D01*
X10591000Y-7443000D02*
X10491000Y-7543000D01*
X10568000Y-8586000D02*
X10668000Y-8686000D01*
X10668000Y-8586000D02*
X10568000Y-8686000D01*
X10568000Y-10618000D02*
X10668000Y-10718000D01*
X10668000Y-10618000D02*
X10568000Y-10718000D01*
X10745000Y-7189000D02*
X10845000Y-7289000D01*
X10845000Y-7189000D02*
X10745000Y-7289000D01*
X10745000Y-7443000D02*
X10845000Y-7543000D01*
X10845000Y-7443000D02*
X10745000Y-7543000D01*
X10999000Y-7189000D02*
X11099000Y-7289000D01*
X11099000Y-7189000D02*
X10999000Y-7289000D01*
X10999000Y-7443000D02*
X11099000Y-7543000D01*
X11099000Y-7443000D02*
X10999000Y-7543000D01*
X11126000Y-11634000D02*
X11226000Y-11734000D01*
X11226000Y-11634000D02*
X11126000Y-11734000D01*
X11130000Y-9602000D02*
X11230000Y-9702000D01*
X11230000Y-9602000D02*
X11130000Y-9702000D01*
X11253000Y-7189000D02*
X11353000Y-7289000D01*
X11353000Y-7189000D02*
X11253000Y-7289000D01*
X11253000Y-7443000D02*
X11353000Y-7543000D01*
X11353000Y-7443000D02*
X11253000Y-7543000D01*
X11326000Y-11634000D02*
X11426000Y-11734000D01*
X11426000Y-11634000D02*
X11326000Y-11734000D01*
X11330000Y-9602000D02*
X11430000Y-9702000D01*
X11430000Y-9602000D02*
X11330000Y-9702000D01*
X11507000Y-7189000D02*
X11607000Y-7289000D01*
X11607000Y-7189000D02*
X11507000Y-7289000D01*
X11507000Y-7443000D02*
X11607000Y-7543000D01*
X11607000Y-7443000D02*
X11507000Y-7543000D01*
X11761000Y-7189000D02*
X11861000Y-7289000D01*
X11861000Y-7189000D02*
X11761000Y-7289000D01*
X11761000Y-7443000D02*
X11861000Y-7543000D01*
X11861000Y-7443000D02*
X11761000Y-7543000D01*
X12015000Y-7189000D02*
X12115000Y-7289000D01*
X12115000Y-7189000D02*
X12015000Y-7289000D01*
X12015000Y-7443000D02*
X12115000Y-7543000D01*
X12115000Y-7443000D02*
X12015000Y-7543000D01*
X12396000Y-9348000D02*
X12496000Y-9448000D01*
X12496000Y-9348000D02*
X12396000Y-9448000D01*
X12396000Y-9548000D02*
X12496000Y-9648000D01*
X12496000Y-9548000D02*
X12396000Y-9648000D01*
X12396000Y-9748000D02*
X12496000Y-9848000D01*
X12496000Y-9748000D02*
X12396000Y-9848000D01*
X12396000Y-9948000D02*
X12496000Y-10048000D01*
X12496000Y-9948000D02*
X12396000Y-10048000D01*
D11*
X10027277Y-12677984D02*
X10027277Y-12477984D01*
X10027277Y-12477984D02*
X10074896Y-12477984D01*
X10074896Y-12477984D02*
X10103467Y-12487508D01*
X10103467Y-12487508D02*
X10122515Y-12506555D01*
X10122515Y-12506555D02*
X10132039Y-12525603D01*
X10132039Y-12525603D02*
X10141563Y-12563698D01*
X10141563Y-12563698D02*
X10141563Y-12592269D01*
X10141563Y-12592269D02*
X10132039Y-12630365D01*
X10132039Y-12630365D02*
X10122515Y-12649412D01*
X10122515Y-12649412D02*
X10103467Y-12668460D01*
X10103467Y-12668460D02*
X10074896Y-12677984D01*
X10074896Y-12677984D02*
X10027277Y-12677984D01*
X10227277Y-12677984D02*
X10227277Y-12544650D01*
X10227277Y-12582746D02*
X10236801Y-12563698D01*
X10236801Y-12563698D02*
X10246324Y-12554174D01*
X10246324Y-12554174D02*
X10265372Y-12544650D01*
X10265372Y-12544650D02*
X10284420Y-12544650D01*
X10351086Y-12677984D02*
X10351086Y-12544650D01*
X10351086Y-12477984D02*
X10341563Y-12487508D01*
X10341563Y-12487508D02*
X10351086Y-12497031D01*
X10351086Y-12497031D02*
X10360610Y-12487508D01*
X10360610Y-12487508D02*
X10351086Y-12477984D01*
X10351086Y-12477984D02*
X10351086Y-12497031D01*
X10474896Y-12677984D02*
X10455848Y-12668460D01*
X10455848Y-12668460D02*
X10446324Y-12649412D01*
X10446324Y-12649412D02*
X10446324Y-12477984D01*
X10579658Y-12677984D02*
X10560610Y-12668460D01*
X10560610Y-12668460D02*
X10551086Y-12649412D01*
X10551086Y-12649412D02*
X10551086Y-12477984D01*
X10808229Y-12677984D02*
X10808229Y-12477984D01*
X10808229Y-12477984D02*
X10874896Y-12620841D01*
X10874896Y-12620841D02*
X10941563Y-12477984D01*
X10941563Y-12477984D02*
X10941563Y-12677984D01*
X11122515Y-12677984D02*
X11122515Y-12573222D01*
X11122515Y-12573222D02*
X11112991Y-12554174D01*
X11112991Y-12554174D02*
X11093944Y-12544650D01*
X11093944Y-12544650D02*
X11055848Y-12544650D01*
X11055848Y-12544650D02*
X11036801Y-12554174D01*
X11122515Y-12668460D02*
X11103467Y-12677984D01*
X11103467Y-12677984D02*
X11055848Y-12677984D01*
X11055848Y-12677984D02*
X11036801Y-12668460D01*
X11036801Y-12668460D02*
X11027277Y-12649412D01*
X11027277Y-12649412D02*
X11027277Y-12630365D01*
X11027277Y-12630365D02*
X11036801Y-12611317D01*
X11036801Y-12611317D02*
X11055848Y-12601793D01*
X11055848Y-12601793D02*
X11103467Y-12601793D01*
X11103467Y-12601793D02*
X11122515Y-12592269D01*
X11217753Y-12544650D02*
X11217753Y-12744650D01*
X11217753Y-12554174D02*
X11236801Y-12544650D01*
X11236801Y-12544650D02*
X11274896Y-12544650D01*
X11274896Y-12544650D02*
X11293943Y-12554174D01*
X11293943Y-12554174D02*
X11303467Y-12563698D01*
X11303467Y-12563698D02*
X11312991Y-12582746D01*
X11312991Y-12582746D02*
X11312991Y-12639888D01*
X11312991Y-12639888D02*
X11303467Y-12658936D01*
X11303467Y-12658936D02*
X11293943Y-12668460D01*
X11293943Y-12668460D02*
X11274896Y-12677984D01*
X11274896Y-12677984D02*
X11236801Y-12677984D01*
X11236801Y-12677984D02*
X11217753Y-12668460D01*
X11398705Y-12658936D02*
X11408229Y-12668460D01*
X11408229Y-12668460D02*
X11398705Y-12677984D01*
X11398705Y-12677984D02*
X11389182Y-12668460D01*
X11389182Y-12668460D02*
X11398705Y-12658936D01*
X11398705Y-12658936D02*
X11398705Y-12677984D01*
X11398705Y-12554174D02*
X11408229Y-12563698D01*
X11408229Y-12563698D02*
X11398705Y-12573222D01*
X11398705Y-12573222D02*
X11389182Y-12563698D01*
X11389182Y-12563698D02*
X11398705Y-12554174D01*
X11398705Y-12554174D02*
X11398705Y-12573222D01*
D12*
X9666500Y-12956500D02*
X9766500Y-13056500D01*
X9766500Y-12956500D02*
X9666500Y-13056500D01*
D11*
X10132039Y-13097984D02*
X10017753Y-13097984D01*
X10074896Y-13097984D02*
X10074896Y-12897984D01*
X10074896Y-12897984D02*
X10055848Y-12926555D01*
X10055848Y-12926555D02*
X10036801Y-12945603D01*
X10036801Y-12945603D02*
X10017753Y-12955127D01*
X10217753Y-13078936D02*
X10227277Y-13088460D01*
X10227277Y-13088460D02*
X10217753Y-13097984D01*
X10217753Y-13097984D02*
X10208229Y-13088460D01*
X10208229Y-13088460D02*
X10217753Y-13078936D01*
X10217753Y-13078936D02*
X10217753Y-13097984D01*
X10351086Y-12897984D02*
X10370134Y-12897984D01*
X10370134Y-12897984D02*
X10389182Y-12907508D01*
X10389182Y-12907508D02*
X10398705Y-12917031D01*
X10398705Y-12917031D02*
X10408229Y-12936079D01*
X10408229Y-12936079D02*
X10417753Y-12974174D01*
X10417753Y-12974174D02*
X10417753Y-13021793D01*
X10417753Y-13021793D02*
X10408229Y-13059888D01*
X10408229Y-13059888D02*
X10398705Y-13078936D01*
X10398705Y-13078936D02*
X10389182Y-13088460D01*
X10389182Y-13088460D02*
X10370134Y-13097984D01*
X10370134Y-13097984D02*
X10351086Y-13097984D01*
X10351086Y-13097984D02*
X10332039Y-13088460D01*
X10332039Y-13088460D02*
X10322515Y-13078936D01*
X10322515Y-13078936D02*
X10312991Y-13059888D01*
X10312991Y-13059888D02*
X10303467Y-13021793D01*
X10303467Y-13021793D02*
X10303467Y-12974174D01*
X10303467Y-12974174D02*
X10312991Y-12936079D01*
X10312991Y-12936079D02*
X10322515Y-12917031D01*
X10322515Y-12917031D02*
X10332039Y-12907508D01*
X10332039Y-12907508D02*
X10351086Y-12897984D01*
X10541563Y-12897984D02*
X10560610Y-12897984D01*
X10560610Y-12897984D02*
X10579658Y-12907508D01*
X10579658Y-12907508D02*
X10589182Y-12917031D01*
X10589182Y-12917031D02*
X10598705Y-12936079D01*
X10598705Y-12936079D02*
X10608229Y-12974174D01*
X10608229Y-12974174D02*
X10608229Y-13021793D01*
X10608229Y-13021793D02*
X10598705Y-13059888D01*
X10598705Y-13059888D02*
X10589182Y-13078936D01*
X10589182Y-13078936D02*
X10579658Y-13088460D01*
X10579658Y-13088460D02*
X10560610Y-13097984D01*
X10560610Y-13097984D02*
X10541563Y-13097984D01*
X10541563Y-13097984D02*
X10522515Y-13088460D01*
X10522515Y-13088460D02*
X10512991Y-13078936D01*
X10512991Y-13078936D02*
X10503467Y-13059888D01*
X10503467Y-13059888D02*
X10493944Y-13021793D01*
X10493944Y-13021793D02*
X10493944Y-12974174D01*
X10493944Y-12974174D02*
X10503467Y-12936079D01*
X10503467Y-12936079D02*
X10512991Y-12917031D01*
X10512991Y-12917031D02*
X10522515Y-12907508D01*
X10522515Y-12907508D02*
X10541563Y-12897984D01*
X10732039Y-12897984D02*
X10751086Y-12897984D01*
X10751086Y-12897984D02*
X10770134Y-12907508D01*
X10770134Y-12907508D02*
X10779658Y-12917031D01*
X10779658Y-12917031D02*
X10789182Y-12936079D01*
X10789182Y-12936079D02*
X10798705Y-12974174D01*
X10798705Y-12974174D02*
X10798705Y-13021793D01*
X10798705Y-13021793D02*
X10789182Y-13059888D01*
X10789182Y-13059888D02*
X10779658Y-13078936D01*
X10779658Y-13078936D02*
X10770134Y-13088460D01*
X10770134Y-13088460D02*
X10751086Y-13097984D01*
X10751086Y-13097984D02*
X10732039Y-13097984D01*
X10732039Y-13097984D02*
X10712991Y-13088460D01*
X10712991Y-13088460D02*
X10703467Y-13078936D01*
X10703467Y-13078936D02*
X10693944Y-13059888D01*
X10693944Y-13059888D02*
X10684420Y-13021793D01*
X10684420Y-13021793D02*
X10684420Y-12974174D01*
X10684420Y-12974174D02*
X10693944Y-12936079D01*
X10693944Y-12936079D02*
X10703467Y-12917031D01*
X10703467Y-12917031D02*
X10712991Y-12907508D01*
X10712991Y-12907508D02*
X10732039Y-12897984D01*
X10884420Y-13097984D02*
X10884420Y-12964650D01*
X10884420Y-12983698D02*
X10893944Y-12974174D01*
X10893944Y-12974174D02*
X10912991Y-12964650D01*
X10912991Y-12964650D02*
X10941563Y-12964650D01*
X10941563Y-12964650D02*
X10960610Y-12974174D01*
X10960610Y-12974174D02*
X10970134Y-12993222D01*
X10970134Y-12993222D02*
X10970134Y-13097984D01*
X10970134Y-12993222D02*
X10979658Y-12974174D01*
X10979658Y-12974174D02*
X10998705Y-12964650D01*
X10998705Y-12964650D02*
X11027277Y-12964650D01*
X11027277Y-12964650D02*
X11046325Y-12974174D01*
X11046325Y-12974174D02*
X11055848Y-12993222D01*
X11055848Y-12993222D02*
X11055848Y-13097984D01*
X11151086Y-13097984D02*
X11151086Y-12964650D01*
X11151086Y-12983698D02*
X11160610Y-12974174D01*
X11160610Y-12974174D02*
X11179658Y-12964650D01*
X11179658Y-12964650D02*
X11208229Y-12964650D01*
X11208229Y-12964650D02*
X11227277Y-12974174D01*
X11227277Y-12974174D02*
X11236801Y-12993222D01*
X11236801Y-12993222D02*
X11236801Y-13097984D01*
X11236801Y-12993222D02*
X11246324Y-12974174D01*
X11246324Y-12974174D02*
X11265372Y-12964650D01*
X11265372Y-12964650D02*
X11293943Y-12964650D01*
X11293943Y-12964650D02*
X11312991Y-12974174D01*
X11312991Y-12974174D02*
X11322515Y-12993222D01*
X11322515Y-12993222D02*
X11322515Y-13097984D01*
X11712991Y-12888460D02*
X11541563Y-13145603D01*
X11970134Y-12897984D02*
X11989182Y-12897984D01*
X11989182Y-12897984D02*
X12008229Y-12907508D01*
X12008229Y-12907508D02*
X12017753Y-12917031D01*
X12017753Y-12917031D02*
X12027277Y-12936079D01*
X12027277Y-12936079D02*
X12036801Y-12974174D01*
X12036801Y-12974174D02*
X12036801Y-13021793D01*
X12036801Y-13021793D02*
X12027277Y-13059888D01*
X12027277Y-13059888D02*
X12017753Y-13078936D01*
X12017753Y-13078936D02*
X12008229Y-13088460D01*
X12008229Y-13088460D02*
X11989182Y-13097984D01*
X11989182Y-13097984D02*
X11970134Y-13097984D01*
X11970134Y-13097984D02*
X11951086Y-13088460D01*
X11951086Y-13088460D02*
X11941563Y-13078936D01*
X11941563Y-13078936D02*
X11932039Y-13059888D01*
X11932039Y-13059888D02*
X11922515Y-13021793D01*
X11922515Y-13021793D02*
X11922515Y-12974174D01*
X11922515Y-12974174D02*
X11932039Y-12936079D01*
X11932039Y-12936079D02*
X11941563Y-12917031D01*
X11941563Y-12917031D02*
X11951086Y-12907508D01*
X11951086Y-12907508D02*
X11970134Y-12897984D01*
X12122515Y-13078936D02*
X12132039Y-13088460D01*
X12132039Y-13088460D02*
X12122515Y-13097984D01*
X12122515Y-13097984D02*
X12112991Y-13088460D01*
X12112991Y-13088460D02*
X12122515Y-13078936D01*
X12122515Y-13078936D02*
X12122515Y-13097984D01*
X12255848Y-12897984D02*
X12274896Y-12897984D01*
X12274896Y-12897984D02*
X12293944Y-12907508D01*
X12293944Y-12907508D02*
X12303467Y-12917031D01*
X12303467Y-12917031D02*
X12312991Y-12936079D01*
X12312991Y-12936079D02*
X12322515Y-12974174D01*
X12322515Y-12974174D02*
X12322515Y-13021793D01*
X12322515Y-13021793D02*
X12312991Y-13059888D01*
X12312991Y-13059888D02*
X12303467Y-13078936D01*
X12303467Y-13078936D02*
X12293944Y-13088460D01*
X12293944Y-13088460D02*
X12274896Y-13097984D01*
X12274896Y-13097984D02*
X12255848Y-13097984D01*
X12255848Y-13097984D02*
X12236801Y-13088460D01*
X12236801Y-13088460D02*
X12227277Y-13078936D01*
X12227277Y-13078936D02*
X12217753Y-13059888D01*
X12217753Y-13059888D02*
X12208229Y-13021793D01*
X12208229Y-13021793D02*
X12208229Y-12974174D01*
X12208229Y-12974174D02*
X12217753Y-12936079D01*
X12217753Y-12936079D02*
X12227277Y-12917031D01*
X12227277Y-12917031D02*
X12236801Y-12907508D01*
X12236801Y-12907508D02*
X12255848Y-12897984D01*
X12389182Y-12897984D02*
X12512991Y-12897984D01*
X12512991Y-12897984D02*
X12446325Y-12974174D01*
X12446325Y-12974174D02*
X12474896Y-12974174D01*
X12474896Y-12974174D02*
X12493944Y-12983698D01*
X12493944Y-12983698D02*
X12503467Y-12993222D01*
X12503467Y-12993222D02*
X12512991Y-13012269D01*
X12512991Y-13012269D02*
X12512991Y-13059888D01*
X12512991Y-13059888D02*
X12503467Y-13078936D01*
X12503467Y-13078936D02*
X12493944Y-13088460D01*
X12493944Y-13088460D02*
X12474896Y-13097984D01*
X12474896Y-13097984D02*
X12417753Y-13097984D01*
X12417753Y-13097984D02*
X12398706Y-13088460D01*
X12398706Y-13088460D02*
X12389182Y-13078936D01*
X12608229Y-13097984D02*
X12646325Y-13097984D01*
X12646325Y-13097984D02*
X12665372Y-13088460D01*
X12665372Y-13088460D02*
X12674896Y-13078936D01*
X12674896Y-13078936D02*
X12693944Y-13050365D01*
X12693944Y-13050365D02*
X12703467Y-13012269D01*
X12703467Y-13012269D02*
X12703467Y-12936079D01*
X12703467Y-12936079D02*
X12693944Y-12917031D01*
X12693944Y-12917031D02*
X12684420Y-12907508D01*
X12684420Y-12907508D02*
X12665372Y-12897984D01*
X12665372Y-12897984D02*
X12627277Y-12897984D01*
X12627277Y-12897984D02*
X12608229Y-12907508D01*
X12608229Y-12907508D02*
X12598706Y-12917031D01*
X12598706Y-12917031D02*
X12589182Y-12936079D01*
X12589182Y-12936079D02*
X12589182Y-12983698D01*
X12589182Y-12983698D02*
X12598706Y-13002746D01*
X12598706Y-13002746D02*
X12608229Y-13012269D01*
X12608229Y-13012269D02*
X12627277Y-13021793D01*
X12627277Y-13021793D02*
X12665372Y-13021793D01*
X12665372Y-13021793D02*
X12684420Y-13012269D01*
X12684420Y-13012269D02*
X12693944Y-13002746D01*
X12693944Y-13002746D02*
X12703467Y-12983698D01*
X12874896Y-12964650D02*
X12874896Y-13097984D01*
X12827277Y-12888460D02*
X12779658Y-13031317D01*
X12779658Y-13031317D02*
X12903467Y-13031317D01*
X12970134Y-12897984D02*
X12970134Y-12936079D01*
X13046325Y-12897984D02*
X13046325Y-12936079D01*
X13341563Y-13174174D02*
X13332039Y-13164650D01*
X13332039Y-13164650D02*
X13312991Y-13136079D01*
X13312991Y-13136079D02*
X13303468Y-13117031D01*
X13303468Y-13117031D02*
X13293944Y-13088460D01*
X13293944Y-13088460D02*
X13284420Y-13040841D01*
X13284420Y-13040841D02*
X13284420Y-13002746D01*
X13284420Y-13002746D02*
X13293944Y-12955127D01*
X13293944Y-12955127D02*
X13303468Y-12926555D01*
X13303468Y-12926555D02*
X13312991Y-12907508D01*
X13312991Y-12907508D02*
X13332039Y-12878936D01*
X13332039Y-12878936D02*
X13341563Y-12869412D01*
X13408229Y-12917031D02*
X13417753Y-12907508D01*
X13417753Y-12907508D02*
X13436801Y-12897984D01*
X13436801Y-12897984D02*
X13484420Y-12897984D01*
X13484420Y-12897984D02*
X13503468Y-12907508D01*
X13503468Y-12907508D02*
X13512991Y-12917031D01*
X13512991Y-12917031D02*
X13522515Y-12936079D01*
X13522515Y-12936079D02*
X13522515Y-12955127D01*
X13522515Y-12955127D02*
X13512991Y-12983698D01*
X13512991Y-12983698D02*
X13398706Y-13097984D01*
X13398706Y-13097984D02*
X13522515Y-13097984D01*
X13693944Y-12897984D02*
X13655848Y-12897984D01*
X13655848Y-12897984D02*
X13636801Y-12907508D01*
X13636801Y-12907508D02*
X13627277Y-12917031D01*
X13627277Y-12917031D02*
X13608229Y-12945603D01*
X13608229Y-12945603D02*
X13598706Y-12983698D01*
X13598706Y-12983698D02*
X13598706Y-13059888D01*
X13598706Y-13059888D02*
X13608229Y-13078936D01*
X13608229Y-13078936D02*
X13617753Y-13088460D01*
X13617753Y-13088460D02*
X13636801Y-13097984D01*
X13636801Y-13097984D02*
X13674896Y-13097984D01*
X13674896Y-13097984D02*
X13693944Y-13088460D01*
X13693944Y-13088460D02*
X13703468Y-13078936D01*
X13703468Y-13078936D02*
X13712991Y-13059888D01*
X13712991Y-13059888D02*
X13712991Y-13012269D01*
X13712991Y-13012269D02*
X13703468Y-12993222D01*
X13703468Y-12993222D02*
X13693944Y-12983698D01*
X13693944Y-12983698D02*
X13674896Y-12974174D01*
X13674896Y-12974174D02*
X13636801Y-12974174D01*
X13636801Y-12974174D02*
X13617753Y-12983698D01*
X13617753Y-12983698D02*
X13608229Y-12993222D01*
X13608229Y-12993222D02*
X13598706Y-13012269D01*
X13951087Y-13097984D02*
X13951087Y-12897984D01*
X14036801Y-13097984D02*
X14036801Y-12993222D01*
X14036801Y-12993222D02*
X14027277Y-12974174D01*
X14027277Y-12974174D02*
X14008230Y-12964650D01*
X14008230Y-12964650D02*
X13979658Y-12964650D01*
X13979658Y-12964650D02*
X13960610Y-12974174D01*
X13960610Y-12974174D02*
X13951087Y-12983698D01*
X14160610Y-13097984D02*
X14141563Y-13088460D01*
X14141563Y-13088460D02*
X14132039Y-13078936D01*
X14132039Y-13078936D02*
X14122515Y-13059888D01*
X14122515Y-13059888D02*
X14122515Y-13002746D01*
X14122515Y-13002746D02*
X14132039Y-12983698D01*
X14132039Y-12983698D02*
X14141563Y-12974174D01*
X14141563Y-12974174D02*
X14160610Y-12964650D01*
X14160610Y-12964650D02*
X14189182Y-12964650D01*
X14189182Y-12964650D02*
X14208230Y-12974174D01*
X14208230Y-12974174D02*
X14217753Y-12983698D01*
X14217753Y-12983698D02*
X14227277Y-13002746D01*
X14227277Y-13002746D02*
X14227277Y-13059888D01*
X14227277Y-13059888D02*
X14217753Y-13078936D01*
X14217753Y-13078936D02*
X14208230Y-13088460D01*
X14208230Y-13088460D02*
X14189182Y-13097984D01*
X14189182Y-13097984D02*
X14160610Y-13097984D01*
X14341563Y-13097984D02*
X14322515Y-13088460D01*
X14322515Y-13088460D02*
X14312991Y-13069412D01*
X14312991Y-13069412D02*
X14312991Y-12897984D01*
X14493944Y-13088460D02*
X14474896Y-13097984D01*
X14474896Y-13097984D02*
X14436801Y-13097984D01*
X14436801Y-13097984D02*
X14417753Y-13088460D01*
X14417753Y-13088460D02*
X14408230Y-13069412D01*
X14408230Y-13069412D02*
X14408230Y-12993222D01*
X14408230Y-12993222D02*
X14417753Y-12974174D01*
X14417753Y-12974174D02*
X14436801Y-12964650D01*
X14436801Y-12964650D02*
X14474896Y-12964650D01*
X14474896Y-12964650D02*
X14493944Y-12974174D01*
X14493944Y-12974174D02*
X14503468Y-12993222D01*
X14503468Y-12993222D02*
X14503468Y-13012269D01*
X14503468Y-13012269D02*
X14408230Y-13031317D01*
X14579658Y-13088460D02*
X14598706Y-13097984D01*
X14598706Y-13097984D02*
X14636801Y-13097984D01*
X14636801Y-13097984D02*
X14655849Y-13088460D01*
X14655849Y-13088460D02*
X14665372Y-13069412D01*
X14665372Y-13069412D02*
X14665372Y-13059888D01*
X14665372Y-13059888D02*
X14655849Y-13040841D01*
X14655849Y-13040841D02*
X14636801Y-13031317D01*
X14636801Y-13031317D02*
X14608230Y-13031317D01*
X14608230Y-13031317D02*
X14589182Y-13021793D01*
X14589182Y-13021793D02*
X14579658Y-13002746D01*
X14579658Y-13002746D02*
X14579658Y-12993222D01*
X14579658Y-12993222D02*
X14589182Y-12974174D01*
X14589182Y-12974174D02*
X14608230Y-12964650D01*
X14608230Y-12964650D02*
X14636801Y-12964650D01*
X14636801Y-12964650D02*
X14655849Y-12974174D01*
X14732039Y-13174174D02*
X14741563Y-13164650D01*
X14741563Y-13164650D02*
X14760611Y-13136079D01*
X14760611Y-13136079D02*
X14770134Y-13117031D01*
X14770134Y-13117031D02*
X14779658Y-13088460D01*
X14779658Y-13088460D02*
X14789182Y-13040841D01*
X14789182Y-13040841D02*
X14789182Y-13002746D01*
X14789182Y-13002746D02*
X14779658Y-12955127D01*
X14779658Y-12955127D02*
X14770134Y-12926555D01*
X14770134Y-12926555D02*
X14760611Y-12907508D01*
X14760611Y-12907508D02*
X14741563Y-12878936D01*
X14741563Y-12878936D02*
X14732039Y-12869412D01*
M02*
